<svg xmlns="http://www.w3.org/2000/svg" xmlns:xlink="http://www.w3.org/1999/xlink" width="550.203" height="397.299" viewBox="0 0 145.575 105.119"><defs><linearGradient xlink:href="#a" id="c" x1="90.551" y1="103.427" x2="94.581" y2="96.546" gradientUnits="userSpaceOnUse" gradientTransform="matrix(1.00014 0 0 1.0443 -2.744 12.918)"/><linearGradient id="a"><stop offset="0" stop-color="#fff"/><stop offset=".392" stop-color="#fdbe57"/><stop offset=".592" stop-color="#ffc25d"/><stop offset="1" stop-color="#fffefe" stop-opacity=".995"/></linearGradient><linearGradient xlink:href="#b" id="d" gradientUnits="userSpaceOnUse" gradientTransform="matrix(1.00014 0 0 1.0443 27.227 12.918)" x1="89.986" y1="104.491" x2="95.414" y2="95.163"/><linearGradient id="b"><stop offset="0" stop-color="#fff"/><stop offset=".393" stop-color="#889ba0"/><stop offset=".488" stop-color="#829da9"/><stop offset="1" stop-color="#fffefe" stop-opacity=".995"/></linearGradient><linearGradient xlink:href="#b" id="e" gradientUnits="userSpaceOnUse" gradientTransform="matrix(1.00014 0 0 1.0443 9.327 43.55)" x1="89.986" y1="104.491" x2="95.414" y2="95.163"/><linearGradient xlink:href="#b" id="f" gradientUnits="userSpaceOnUse" gradientTransform="matrix(1.00014 0 0 1.0443 15.144 43.55)" x1="89.986" y1="104.491" x2="95.414" y2="95.163"/></defs><g paint-order="stroke markers fill"><path d="M72.787 18.302L47.464 80.275l21.99-13.1 3.333-18.669z" fill="#889ba1"/><path d="M72.787 18.302l25.324 61.973-21.99-13.1-3.334-18.669z" fill="#9bacb1"/><path style="line-height:normal;font-variant-ligatures:normal;font-variant-position:normal;font-variant-caps:normal;font-variant-numeric:normal;font-variant-alternates:normal;font-variant-east-asian:normal;font-feature-settings:normal;font-variation-settings:normal;text-indent:0;text-align:start;text-decoration-line:none;text-decoration-style:solid;text-decoration-color:#000;text-transform:none;text-orientation:mixed;white-space:normal;shape-padding:0;shape-margin:0;inline-size:0;isolation:auto;mix-blend-mode:normal;solid-color:#000;solid-opacity:1" d="M7.748 11.073L.806 19.632l21.688 6.126zm130.079 0L123.08 25.758l21.689-6.126zM0 23.728l13.407 16.139 34.848 8.97a37.811 37.811 0 00.003 4.225l-30.632-8.295 12.285 14.77 21.325 4.868 1.301-3.025c-4.05-11.42-.111-21.56.189-22.943 3.553-1.629 7.166-3.007 10.886-3.934l1.353-2.678c-5.34 1.264-9.864 2.931-14.29 4.961zm145.575 0L94.9 36.786c-4.427-2.03-8.95-3.697-14.29-4.96l1.352 2.677c3.72.927 7.333 2.305 10.886 3.934.3 1.382 4.238 11.523.189 22.943l1.3 3.025 21.326-4.869 12.285-14.77-30.632 8.296c.081-1.389.08-2.802.003-4.225l34.849-8.97zM61.856 75.106l-1.977 1.516c4.45 3.8 8.44 6.128 12.908 8.511 4.469-2.383 8.458-4.71 12.909-8.511l-1.978-1.516c-2.889 2.662-6.478 4.925-10.93 7.3-4.453-2.375-8.043-4.638-10.932-7.3z" color="#000" font-weight="400" font-family="sans-serif" overflow="visible" fill="#2374b4"/><path d="M0 23.728l13.407 16.139 24.424 6.287zm145.575 0l-37.831 22.426 24.424-6.287zM17.625 44.767l12.286 14.77 16.546 3.777zm110.324 0L99.117 63.314l16.547-3.778z" fill="#305b97"/><path d="M72.699 0a52.56 52.56 0 00-45.842 27.008l12.646 3.402a39.98 39.98 0 0133.284-17.831 39.98 39.98 0 0133.285 17.831l12.646-3.402A52.56 52.56 0 0072.788 0a52.56 52.56 0 00-.09 0zM20.25 54.147a52.56 52.56 0 0052.536 50.972 52.56 52.56 0 0052.536-50.971l-6.805 8.22-7.516 1.942a39.98 39.98 0 01-38.215 28.23 39.98 39.98 0 01-38.214-28.23l-7.517-1.942z" fill="#305b97"/><g aria-label="COMPANY GRADE" style="-inkscape-font-specification:'Montserrat Bold';text-align:center" font-weight="700" font-size="8.467" font-family="Montserrat" letter-spacing=".212" text-anchor="middle" stroke-width="2.203" stroke-linecap="square" fill="#fff"><path d="M39.415 24.56q-.592.686-1.368.99-.776.291-1.579.159-.803-.145-1.47-.72-.667-.574-.922-1.342-.256-.78-.076-1.585.18-.818.777-1.51.503-.584 1.111-.876.614-.297 1.276-.286l.04 1.197q-.918.002-1.498.676-.36.417-.455.904-.103.482.064.95.173.461.59.82.416.36.898.462.488.096.956-.07.461-.173.82-.59.58-.674.44-1.588l1.191-.136q.115.658-.089 1.31-.203.65-.706 1.234zM43.9 20.128q-.7.602-1.524.786-.818.18-1.592-.07-.773-.262-1.342-.923-.569-.661-.707-1.458-.138-.809.16-1.591.305-.788 1.005-1.39.7-.602 1.517-.78.818-.18 1.597.076.774.25 1.343.911t.707 1.47q.132.802-.167 1.584-.298.783-.998 1.385zm-.763-.886q.398-.342.564-.798.16-.462.058-.944-.095-.488-.454-.905-.36-.417-.827-.584-.462-.172-.937-.076-.481.09-.879.433-.398.342-.558.804-.166.456-.07.944.101.482.46.899.36.417.82.59.469.166.95.076.475-.096.873-.439zM51.937 14.426l-1.83-3.049.004 3.41-.53.316-2.953-1.56 1.783 2.987-1.105.66-3.037-5.09.974-.581 3.792 2.026-.011-4.282.967-.577 3.051 5.08zM54.741 6.673q.732-.29 1.364-.259.64.029 1.11.362.468.333.712.947.24.606.13 1.178-.113.564-.56 1.023-.441.449-1.173.739l-1.11.44.602 1.519-1.275.506-2.184-5.51zm1.1 2.98q.575-.229.777-.591.2-.37.018-.827-.184-.465-.58-.59-.399-.133-.973.095l-1.04.412.76 1.912zM63.686 8.85l-2.677.638-.216 1.357-1.368.325 1.198-6.377 1.318-.314 3.95 5.152-1.4.334zm-.66-.913l-1.44-1.99-.39 2.426zM71.684 3.214l.465 5.908-1.123.089-3.228-3.356.282 3.588-1.35.106-.465-5.909 1.13-.089 3.22 3.356-.282-3.587zM76.75 7.246l-.138 2.095-1.369-.09.14-2.112-2.037-3.954 1.453.096 1.406 2.733 1.754-2.523 1.343.089zM86.935 8.214l1.208.332-.637 2.319q-.561.223-1.225.242-.664.02-1.285-.15-.89-.245-1.497-.815-.605-.58-.83-1.36-.213-.788.02-1.637.233-.85.817-1.41.594-.565 1.416-.743.824-.186 1.722.06.751.207 1.294.628.543.421.827 1.017l-1.064.55q-.436-.812-1.301-1.05-.547-.15-1.034-.038-.488.112-.839.463-.351.351-.499.89-.146.531-.023 1.012.122.482.473.833.362.345.901.493.572.157 1.096.038zM92.182 13.543l-.376-1.972-.062-.028-1.092-.483-.668 1.51-1.255-.556 2.4-5.419 2.346 1.039q.72.318 1.14.791.428.477.519 1.045.09.568-.177 1.172t-.756.915q-.479.307-1.116.302l.444 2.28zm1.506-3.463q.202-.457.014-.827-.184-.378-.75-.628l-1.022-.453-.836 1.89 1.022.452q.565.25.97.132.403-.117.602-.566zM98.55 15.733l-2.327-1.47-1.122.794-1.188-.75 5.399-3.6 1.145.723-.925 6.426-1.217-.769zm.19-1.11l.418-2.421-2.006 1.416zM104.074 13.924l2.03 1.768q.728.634 1.039 1.399.322.764.19 1.535-.127.777-.711 1.447t-1.336.902q-.746.238-1.553.03-.794-.21-1.522-.844l-2.03-1.768zm-1.174 5.344q.67.583 1.388.558.73-.026 1.287-.665.556-.638.476-1.359-.067-.721-.738-1.305l-.945-.823-2.413 2.77zM109.336 26.005l-.834.719-2.996-3.476 4.489-3.87 2.924 3.393-.833.718-2.035-2.36-.974.84 1.796 2.085-.808.696-1.796-2.084-1.04.896z"/></g><g aria-label="OFFICERS' COUNCIL" style="-inkscape-font-specification:'Montserrat Bold';text-align:center" font-weight="700" font-size="8.467" font-family="Montserrat" letter-spacing="1.587" text-anchor="middle" fill="#fff" stroke-width="2.203" stroke-linecap="square"><path d="M29.06 74.786q-.427-.818-.418-1.663.013-.837.433-1.533.432-.693 1.206-1.096.773-.402 1.58-.355.82.051 1.512.52.698.478 1.124 1.296.426.819.413 1.656-.013.837-.44 1.537-.42.696-1.194 1.099t-1.593.352q-.81-.055-1.504-.525-.693-.47-1.12-1.288zm1.036-.54q.242.466.648.732.413.262.906.273.496.018.984-.236.489-.254.758-.671.274-.41.288-.895.023-.489-.22-.954-.242-.466-.655-.728-.406-.266-.902-.284-.493-.011-.981.243t-.762.664q-.27.417-.292.906-.014.485.228.95zM36.818 78.007l-1.256.936 1.639 2.2-.883.657-1.639-2.2-1.731 1.29-.82-1.1 4.754-3.54 2.675 3.592-.883.657zM40.868 82.846l-1.112 1.103 1.933 1.947-.781.776-1.933-1.947-1.532 1.52-.967-.973 4.207-4.175 3.155 3.179-.781.775zM45.276 85.429l1.072.856-3.7 4.63-1.072-.856zM47.4 94.295q-.771-.474-1.195-1.192-.412-.72-.41-1.533.015-.816.476-1.566.461-.75 1.178-1.125.728-.377 1.553-.328.836.047 1.615.526.656.403 1.041.957.392.559.487 1.213l-1.176.232q-.149-.906-.906-1.372-.469-.288-.965-.304-.492-.024-.928.215-.428.244-.716.713t-.312.96q-.017.497.223.932.243.428.712.716.758.466 1.638.182l.325 1.153q-.631.219-1.307.121-.676-.097-1.332-.5zM56.462 97.35l-.426 1.014-4.231-1.775 2.293-5.465 4.13 1.733-.426 1.015-2.873-1.206-.498 1.187 2.537 1.065-.412.983-2.538-1.064-.53 1.264zM62.253 100.115l-.713-1.877-.066-.017-1.158-.287-.397 1.603-1.332-.33 1.426-5.753 2.49.617q.764.19 1.26.583.504.395.692.939.188.544.029 1.185-.159.64-.587 1.032-.418.385-1.047.49l.832 2.17zm.883-3.671q.12-.485-.129-.817-.247-.34-.847-.49l-1.085-.268-.497 2.005 1.085.269q.6.149.977-.037.378-.186.496-.662zM68.155 101.113q-.7-.066-1.34-.314-.63-.255-.998-.596l.561-.984q.353.314.86.532.506.218 1.03.267.58.055.875-.087.295-.15.322-.437.02-.21-.136-.362-.147-.158-.4-.267-.245-.108-.673-.251-.66-.224-1.074-.425-.415-.2-.693-.584-.27-.383-.214-.973.048-.514.366-.901.318-.395.897-.587.588-.19 1.397-.114.565.053 1.092.24.526.185.907.476l-.52.997q-.773-.54-1.591-.618-.573-.055-.869.105-.287.16-.316.463-.029.303.269.485.307.173.942.378.66.224 1.074.425.415.2.685.575.28.375.224.965-.048.506-.375.9-.317.387-.905.578-.588.19-1.397.114zM72.605 95.302l1.126-.01-.072 2.405-.948.009zM83.243 100.216q-.887.182-1.687-.051-.794-.243-1.348-.838-.548-.605-.725-1.468-.177-.862.09-1.626.273-.773.907-1.301.642-.538 1.537-.722.755-.155 1.415-.014.668.139 1.185.551l-.699.974q-.728-.56-1.599-.38-.54.11-.913.438-.375.319-.528.791-.146.47-.035 1.01.11.539.43.914.327.374.8.527.47.146 1.01.035.87-.18 1.318-.988l1.026.619q-.311.59-.87.982-.56.392-1.314.547zM90.626 97.996q-.86.335-1.699.234-.83-.105-1.476-.598-.641-.505-.957-1.318-.316-.813-.18-1.61.14-.809.682-1.446.55-.641 1.41-.975.86-.335 1.691-.23.831.104 1.48.606.646.493.962 1.306.316.813.176 1.621-.143.8-.686 1.439-.542.637-1.403.971zm-.423-1.089q.49-.19.798-.564.306-.382.37-.87.073-.492-.126-1.005-.2-.513-.585-.826-.377-.317-.858-.385-.483-.075-.972.115-.49.19-.795.572-.31.374-.382.866-.064.488.135 1.001.2.513.577.83.385.313.868.389.48.067.97-.123zM98.255 94.24q-1.086.658-2.059.425-.965-.237-1.64-1.353l-1.718-2.84 1.174-.71 1.692 2.797q.824 1.361 1.954.678.55-.333.643-.835.088-.508-.337-1.21l-1.692-2.797 1.159-.701 1.718 2.84q.675 1.115.43 2.084-.237.965-1.324 1.623zM103.119 82.992l3.878 4.481-.851.737-4.59-.787 2.356 2.72-1.025.887-3.878-4.481.858-.743 4.582.793-2.354-2.72zM110.97 83.195q-.578.697-1.349 1.015-.771.305-1.576.187-.805-.13-1.483-.693-.677-.563-.945-1.326-.27-.774-.104-1.583.164-.821.749-1.524.492-.593 1.096-.895.608-.309 1.27-.31l.062 1.197q-.918.019-1.486.702-.352.424-.44.913-.093.483.082.948.18.458.604.81.423.352.907.446.489.087.954-.088.458-.18.81-.604.568-.684.412-1.595l1.188-.158q.126.656-.066 1.31-.192.656-.684 1.248zM108.843 75.941l.74-1.154 4.99 3.2-.741 1.154zM110.785 72.793l.606-1.23 4.314 2.124 1.314-2.666 1.002.494-1.919 3.896z"/></g><path d="M87.873 113.917h3.51v6.915h-3.51z" fill="url(#c)" stroke="#969696" stroke-width=".307" stroke-linecap="square" transform="translate(-31.88 -74.095)"/><path d="M117.844 113.917h3.51v6.915h-3.51z" fill="url(#d)" stroke="#8490a4" stroke-width=".307" stroke-linecap="square" transform="translate(-31.88 -74.095)"/><path d="M70.973 71.97h3.438v.509h-3.438zM70.973 75.676h3.438v.508h-3.438z" fill="#556c8a"/><path d="M99.944 144.548h3.51v6.916h-3.51z" fill="url(#e)" stroke="#8490a4" stroke-width=".307" stroke-linecap="square" transform="translate(-31.88 -74.095)"/><path d="M105.76 144.548h3.51v6.916h-3.51z" fill="url(#f)" stroke="#8490a4" stroke-width=".307" stroke-linecap="square" transform="translate(-31.88 -74.095)"/></g></svg>